<svg xmlns="http://www.w3.org/2000/svg" xmlns:xlink="http://www.w3.org/1999/xlink" xml:space="preserve" style="shape-rendering:geometricPrecision;text-rendering:geometricPrecision;image-rendering:optimizeQuality;" viewBox="0 0 50 62.5" x="0px" y="0px" fill-rule="evenodd" clip-rule="evenodd"><defs></defs><g><path class="fil0" d="M30.0875 25.8636c2.1111,1.6771 3.3756,3.80895 3.3756,6.1302 0,1.3885 -0.453,2.7091 -1.2683,3.90535 0.259,-0.1144 0.51305,-0.23585 0.76095,-0.36545 3.6336,-1.8994 1.85115,-5.6774 2.2025,-8.76965 0.44385,-3.9061 7.0145,-6.51775 7.6453,-5.00685 1.9761,4.7334 -3.6113,3.64165 -3.9239,6.63135 -0.3944,3.7716 2.11995,6.40035 -2.46725,8.79825 -2.07975,1.08715 -4.6687,1.5788 -7.39135,1.7001 -2.76775,1.78245 -6.6014,2.88615 -10.838,2.88615 -8.43895,0 -15.2801,-4.3783 -15.2801,-9.77925 0,-2.90425 1.97885,-5.51235 5.1199,-7.3034 2.35765,2.897 6.6662,4.8368 11.5916,4.8368 4.226,0 7.99785,-1.4282 10.4731,-3.6636zm-10.4731 -16.0998c1.6612,0 2.9393,-0.06765 4.409,0.336 6.3111,-11.8954 5.3981,1.3577 5.3197,2.42045 2.3348,1.78435 3.77075,4.2092 3.77075,6.88085 0,5.482 -6.0439,9.9261 -13.4994,9.9261 -7.45555,0 -13.4995,-4.4441 -13.4995,-9.9261 0,-2.67165 1.43585,-5.09665 3.77075,-6.8808 -1.54615,-1.86155 -3.7313,-14.14 5.29565,-2.4205 1.4698,-0.4036 2.77185,-0.336 4.43305,-0.336zm-15.7808 12.3252c2.7675,-0.9009 5.2157,-0.8844 7.14685,-0.00285 0.15335,-0.0977 0.28075,-0.1976 0.06195,-0.3281 -2.29665,-0.87175 -4.959,-0.5712 -7.2088,0.33095zm0.27685 2.91505c2.4839,-1.51685 4.8695,-2.06735 6.9522,-1.65665 0.12655,-0.1305 0.22735,-0.2572 -0.01565,-0.33355 -2.4361,-0.3166 -4.9566,0.5919 -6.93655,1.9902zm0.3735 1.79455c2.32175,-1.755 4.6412,-2.53865 6.7543,-2.3359 0.11305,-0.14235 0.20085,-0.2784 -0.04855,-0.33035 -2.45545,-0.0742 -4.87375,1.07905 -6.70575,2.66625zm30.9113 -4.7096c-2.7675,-0.9009 -5.2157,-0.8844 -7.14685,-0.00285 -0.15335,-0.0977 -0.28075,-0.1976 -0.06195,-0.3281 2.29665,-0.87175 4.959,-0.5712 7.2088,0.33095zm-0.27685 2.91505c-2.4839,-1.51685 -4.8695,-2.06735 -6.9522,-1.65665 -0.12655,-0.1305 -0.22735,-0.2572 0.01565,-0.33355 2.4361,-0.3166 4.9566,0.5919 6.93655,1.9902zm-0.3735 1.79455c-2.32175,-1.755 -4.6412,-2.53865 -6.7543,-2.3359 -0.11305,-0.14235 -0.20085,-0.2784 0.04855,-0.33035 2.45545,-0.0742 4.87375,1.07905 6.70575,2.66625zm-21.0604 -6.61185c0.3148,1.91935 1.91425,3.7049 1.91425,5.1183 0,1.41335 -1.00255,2.55915 -2.23925,2.55915 -1.2367,0 -2.23925,-1.1458 -2.23925,-2.55915 0,-1.4134 1.91935,-3.19895 2.56425,-5.1183zm-0.05415 0.6398c0.26225,1.59945 1.59515,3.08745 1.59515,4.2652 0,1.1778 -0.83545,2.1326 -1.866,2.1326 -1.03065,0 -1.86605,-0.9548 -1.86605,-2.1326 0,-1.17775 1.5994,-2.66575 2.1369,-4.2652zm-1.5321 -6.2321c3.2905,-1.9782 2.995,-0.8663 3.0178,-0.82835 0.02285,0.03795 0.0262,-0.5076 -2.69565,1.1288 -2.7219,1.6364 -2.1621,1.84335 -2.18495,1.8054 -0.0228,-0.03795 -1.4277,-0.1276 1.8628,-2.10585zm2.04565 1.30585c0.7112,0 1.28775,1.00895 1.28775,2.2536 0,1.24465 -0.57655,2.2536 -1.28775,2.2536 -0.71125,0 -1.2878,-1.00895 -1.2878,-2.2536 0,-1.24465 0.57655,-2.2536 1.2878,-2.2536zm11.0601 -1.30585c-3.2905,-1.9782 -2.995,-0.8663 -3.0178,-0.82835 -0.02285,0.03795 -0.02625,-0.5076 2.69565,1.1288 2.7219,1.6364 2.1621,1.84335 2.1849,1.8054 0.02285,-0.03795 1.42775,-0.1276 -1.86275,-2.10585zm-2.04565 1.30585c-0.7112,0 -1.28775,1.00895 -1.28775,2.2536 0,1.24465 0.57655,2.2536 1.28775,2.2536 0.71125,0 1.2878,-1.00895 1.2878,-2.2536 0,-1.24465 -0.57655,-2.2536 -1.2878,-2.2536zm-3.50445 6.68895c4.35035,0 3.41425,1.5673 3.41425,1.654 0,0.0867 0.3218,-0.8251 -3.2768,-0.8251 -3.59855,0 -3.1758,0.9118 -3.1758,0.8251 0,-0.0867 -1.31195,-1.654 3.03835,-1.654zm-0.932 -3.147c0.9967,0 1.8047,0.404 1.8047,0.90235 0,0.4984 -0.808,0.9024 -1.8047,0.9024 -0.99675,0 -1.80475,-0.404 -1.80475,-0.9024 0,-0.49835 0.808,-0.90235 1.80475,-0.90235z"/></g></svg>