<svg xmlns="http://www.w3.org/2000/svg" xmlns:xlink="http://www.w3.org/1999/xlink" version="1.1" x="0px" y="0px" viewBox="0 0 100 125" enable-background="new 0 0 100 100" xml:space="preserve"><path d="M91.4,44.8c2.8-10.9,3-22.3,3.4-34.2c0.1-3.2-3.3-5.2-6.1-3.5c-7.4,4.3-14.8,8.6-21.5,13.9c-1.7-0.4-11.6-1.8-17.7-1.8  c-6.5,0-14.9,1-17.3,1.6c-6.6-5.2-13.9-9.4-21.2-13.7C8.3,5.5,4.9,7.4,5,10.6C5.3,22.5,5.6,34,8.3,44.8c0,0.4,0.1,0.7,0.3,1  c-0.7,2.7-1,5.5-1,8.2c0,5.9,1.8,11.5,4.9,16.5c0.9-0.4,1.9-0.7,2.8-1c7.1-2.2,14.8-2.3,22.1-1.5c-7.2,0.6-14.4,0.7-21.4,2.8  c-0.9,0.3-1.9,0.6-2.8,1c0.6,0.9,1.3,1.8,2.1,2.7c0.1,0,0.2-0.1,0.3-0.1c6.5-3.2,14.2-4,21.4-4.2c-6.9,1.5-13.9,2.5-20.4,5.4  c-0.1,0-0.2,0.1-0.3,0.1c0.7,0.7,1.4,1.5,2.2,2.1c0.3-0.2,0.7-0.4,1.1-0.6c0.3-0.2,0.7-0.4,1.1-0.5c0.4-0.2,0.7-0.3,1.1-0.5  c0.4-0.2,0.7-0.3,1.1-0.5c0.3-0.1,0.6-0.2,0.9-0.3c0.3-0.1,0.6-0.2,0.9-0.3c0.3-0.1,0.5-0.2,0.8-0.3c0.6-0.2,1.2-0.4,1.8-0.5  c0.4-0.1,0.8-0.2,1.2-0.3c0.2,0,0.3-0.1,0.5-0.1c0.6-0.1,1.2-0.3,1.8-0.4c0.6-0.1,1.2-0.2,1.8-0.3c0.6-0.1,1.2-0.2,1.8-0.3  c0.6-0.1,1.2-0.2,1.8-0.2c0.3,0,0.7-0.1,1-0.1c0,0,0,0,0,0c-0.5,0.2-1,0.3-1.5,0.5c-2.1,0.6-4.3,1.2-6.4,1.9c-0.5,0.2-1,0.3-1.5,0.5  c-0.5,0.2-1.1,0.4-1.6,0.6c-0.1,0-0.1,0-0.2,0.1c-0.4,0.1-0.8,0.3-1.1,0.4c-0.4,0.2-0.8,0.3-1.1,0.5c-0.5,0.2-1,0.4-1.5,0.6  c-0.2,0.1-0.3,0.1-0.5,0.2c-0.7,0.3-1.3,0.7-2,1c7.6,6.4,18.2,10.5,29.9,10.5c11.9,0,22.6-4.1,30.2-10.8c-5.3-2.8-11.2-4.2-16.9-6  c6.2,0.6,12.6,1.9,18,5c0.7-0.7,1.4-1.4,2.1-2.1c-6.4-2.8-13.3-3.8-20.1-5.2c7,0.2,14.7,1,21.1,4c0.7-0.9,1.4-1.7,2-2.6  c-0.7-0.3-1.4-0.5-2.1-0.7c-7-2.1-14.2-2.3-21.3-2.8c7.3-0.8,15-0.7,22.1,1.5c0.7,0.2,1.4,0.5,2.1,0.8c3-4.9,4.7-10.4,4.7-16.2  c0-2.5-0.3-5-0.8-7.5C91.1,46.1,91.4,45.5,91.4,44.8z M13.1,35.3c-0.7-5.9-1-11.7-1.2-17.1c0-0.9,1-1.5,1.8-1.1  c3.8,2.2,7.5,4.5,11,6.8C19.9,26.7,15.9,30.6,13.1,35.3z M29.8,48.3c-0.4,2.5,0.2,4.8,1.6,6.3c-2.8-1.2-5.5-4.2-6.3-6.7  c0.9-2,4.3-4.1,7.9-4.8C31.4,44.1,30.2,46,29.8,48.3z M36.8,49.4c-0.3,3.2-1.8,5.7-1.8,5.7s-1.1-2.7-0.9-5.9  c0.2-3.2,1.8-5.7,1.8-5.7S37,46.2,36.8,49.4z M53.2,62.9c1.5,0,2.3,1.3,1.6,2.3c-1.7,1.8-2.9,3.5-3.7,5.2c-0.7,1-2.5,1-3.2,0  c-0.8-1.6-2.1-3.4-3.7-5.2c-0.7-1,0.2-2.3,1.6-2.3C48.3,63.1,50.8,63.1,53.2,62.9z M41,50.2c0.4-2.3-0.1-4.5-1.3-6.1  c3.2,2,4.2,5.8,5.5,10.2c-2.3,0.6-4.9,1.2-7.6,1.2C39.3,54.6,40.6,52.6,41,50.2z M58.9,79.3c-2.2,1.7-5.1,1.8-7.4,0.2  c-0.8-0.5-1.5-1.2-2-2c-1.3,1.7-2.9,3-5.2,3.1c-1.5,0.1-2.9-0.4-4.1-1.3c-0.2-0.2-1.1-0.8-1.1-1.2c0-0.6,0.5-0.3,0.8-0.1  c1,0.6,1.8,1.2,3,1.4c1.4,0.2,2.9-0.4,3.9-1.4c0.8-0.8,1.2-1.7,1.8-2.6c0.1-0.2,0.3-0.3,0.5-0.4c0.5-0.3,1.1-0.2,1.3,0.4  c1,2.2,2.8,4.2,5.5,4c1.3-0.1,2.1-0.7,3.1-1.4c0.3-0.2,0.8-0.5,0.8,0.1C59.9,78.6,59.1,79.1,58.9,79.3z M53.9,54.4  c1.3-4.4,2.3-8.2,5.4-10.2c-1.2,1.5-1.7,3.7-1.3,6.1c0.4,2.4,1.8,4.4,3.5,5.4C58.8,55.6,56.2,55,53.9,54.4z M64.2,55.1  c0,0-1.6-2.5-1.8-5.7c-0.3-3.2,0.9-5.9,0.9-5.9s1.6,2.5,1.8,5.7C65.3,52.4,64.2,55.1,64.2,55.1z M67.7,54.6c1.4-1.5,2-3.9,1.6-6.3  c-0.4-2.3-1.6-4.1-3.2-5.2c3.6,0.7,7,2.8,7.9,4.8C73.2,50.5,70.6,53.4,67.7,54.6z M86.6,35.9c-2.8-4.8-6.8-9-11.8-11.9  c3.6-2.4,7.4-4.7,11.3-7c0.8-0.5,1.9,0.1,1.8,1.1C87.7,23.8,87.4,29.7,86.6,35.9z"/><path d="M37,72.5L37,72.5c-0.5,0.2-1,0.3-1.5,0.5C36,72.8,36.5,72.6,37,72.5z"/><path d="M37.1,72.5C37.1,72.5,37.1,72.5,37.1,72.5C37,72.5,37.1,72.5,37.1,72.5L37.1,72.5z"/></svg>