<svg xmlns="http://www.w3.org/2000/svg" data-name="Layer 1" viewBox="0 0 100 125" x="0px" y="0px"><defs></defs><g><path d="M30.32,58.74c1.07-.61,2.17-1.24,2.78-1.65l-1.38-.53a26.85,26.85,0,0,1-8.16,1.92,1.59,1.59,0,0,0-.39,1.3,2.55,2.55,0,0,0,1.34,2,2,2,0,0,0,.83.17h0.08C26.56,61.4,27.64,60.27,30.32,58.74Z"/><path d="M77.65,30.49c0.2-.48.76-1.62,1.27-2.63a0.5,0.5,0,0,0-.38-0.72l-3.23-.41L75.43,24a0.5,0.5,0,0,0-.16-0.39,0.49,0.49,0,0,0-.4-0.13,30.43,30.43,0,0,1-6.47-.8C57.57,20.78,37.55,17.2,26.83,35l4,0.78a0.5,0.5,0,0,1-.1,1h-0.1l-4.74-.93L24,35.5a0.5,0.5,0,0,0-.59.51l0.09,2.73-1.93-.57a0.5,0.5,0,0,0-.64.5l0,1.41a7.56,7.56,0,0,0-3.1,7.19,8.7,8.7,0,0,1-.73,1.39c-1.17,2-3.12,5.38-2,8a0.5,0.5,0,0,0,.61.28c2.48-.79,5.48-1.48,5.92-1.3,0.26,0.29,1.53,1.35,2.12,1.84a25.53,25.53,0,0,0,7.75-1.89,0.5,0.5,0,0,1,.39,0l4.29,1.64L36,56.82l-0.09-1,0.65-.29,1.27,0.74a10.8,10.8,0,0,0,3.7-6.67C41.83,46.08,40,42.41,36,38.67a0.5,0.5,0,0,1,.69-0.73c4.2,4,6.13,7.92,5.74,11.75-0.55,5.38-5.47,8.47-5.68,8.6a0.5,0.5,0,0,1-.44,0l-2.15-.82a24.8,24.8,0,0,1-3.38,2.1c-1.43.82-4.29,2.15-4.28,2.63a2.5,2.5,0,0,0,0,.48,2.3,2.3,0,0,0,2.06,1.78l0.32,0c3.44,0,12.32-6.5,13.87-7.74a7.49,7.49,0,0,1,3.49-1.09c2.14-.33,4.57-0.69,4.4-3.63a6.92,6.92,0,0,1,.21-2,31,31,0,0,1,2.89-7.89A0.5,0.5,0,0,1,54.14,42l1.25-.35-2.73-2.7a0.5,0.5,0,0,1,.18-0.83l2.68-1-1.3-.57a0.5,0.5,0,0,1,.4-0.92l2.44,1.07a0.5,0.5,0,0,1,0,.93l-3.11,1.13,2.78,2.75a0.5,0.5,0,0,1-.22.84l-1.87.52A33.12,33.12,0,0,0,52.22,49L55,49.86c1.59-4.68,6.7-9.48,8-10a0.5,0.5,0,1,1,.37.93c-1,.42-8.21,7.15-7.77,12.07a2.83,2.83,0,0,0,.12.51c1,2.7,3.48,4.57,5.39,5.68,2.86-.93,3.3-1.16,4.56-1.28a0.5,0.5,0,1,1,.09,1s-1.9.45-5.13,1.48h0c-3.42,1.06-7.41,2.3-10.84,3.35a2.31,2.31,0,0,0-1.49,2.89A6.59,6.59,0,0,0,48.79,68c7.72,0.09,18.15-3.5,20.69-5.49a0.5,0.5,0,1,1,.62.79c-2.6,2-13.16,5.71-21.06,5.71H48.88c-8.24.23-19.17-1.6-25.68-6.93-2.24-1.84-3.42-1.69-4.38-1.05a3.93,3.93,0,0,0-1.72,2.87,2.74,2.74,0,0,0,.82,2.28C25.09,73,33.85,76,47,76c2.92,0,6.06-.15,9.45-0.45,11.51-1,22.83-9,26.91-19.1C85.74,50.47,86.72,41.11,77.65,30.49ZM15.95,56.14s0.92-1.54,1.09-1.73a4,4,0,0,1,3-1.1,2.61,2.61,0,0,1,1.48,1.63C21.6,55.1,15.95,56.14,15.95,56.14Z"/></g><path class="cls-1" d="M36,56.82l-0.09-1,0.65-.29,1.4,0.81s-1.48,1.31-1.6,1.09S36,56.82,36,56.82Z"/>></svg>